solid OpenSCAD_Model
  facet normal 0 -0.239316 0.970942
    outer loop
      vertex -110 31.8589 9.95818
      vertex -70 30 9.5
      vertex -70 31.8589 9.95818
    endloop
  endfacet
  facet normal 0 -0.239316 0.970942
    outer loop
      vertex -70 30 9.5
      vertex -110 31.8589 9.95818
      vertex -110 30 9.5
    endloop
  endfacet
  facet normal 0 -0.992709 -0.120535
    outer loop
      vertex -110 33.9708 13.0179
      vertex -70 33.7401 14.9184
      vertex -110 33.7401 14.9184
    endloop
  endfacet
  facet normal 0 -0.992709 -0.120535
    outer loop
      vertex -70 33.7401 14.9184
      vertex -110 33.9708 13.0179
      vertex -70 33.9708 13.0179
    endloop
  endfacet
  facet normal 0 -0.663123 0.748511
    outer loop
      vertex -110 33.2919 11.2277
      vertex -70 31.8589 9.95818
      vertex -70 33.2919 11.2277
    endloop
  endfacet
  facet normal 0 -0.663123 0.748511
    outer loop
      vertex -70 31.8589 9.95818
      vertex -110 33.2919 11.2277
      vertex -110 31.8589 9.95818
    endloop
  endfacet
  facet normal 0 -0.822978 -0.568073
    outer loop
      vertex -110 33.7401 14.9184
      vertex -70 33.6838 15
      vertex -110 33.6838 15
    endloop
  endfacet
  facet normal 0 -0.822978 -0.568073
    outer loop
      vertex -70 33.6838 15
      vertex -110 33.7401 14.9184
      vertex -70 33.7401 14.9184
    endloop
  endfacet
  facet normal 0 -0.935017 0.354604
    outer loop
      vertex -110 33.2919 11.2277
      vertex -70 33.9708 13.0179
      vertex -110 33.9708 13.0179
    endloop
  endfacet
  facet normal 0 -0.935017 0.354604
    outer loop
      vertex -70 33.9708 13.0179
      vertex -110 33.2919 11.2277
      vertex -70 33.2919 11.2277
    endloop
  endfacet
  facet normal -0 0.239315 0.970942
    outer loop
      vertex -110 30 9.5
      vertex -70 28.1411 9.95818
      vertex -70 30 9.5
    endloop
  endfacet
  facet normal 0 0.239315 0.970942
    outer loop
      vertex -70 28.1411 9.95818
      vertex -110 30 9.5
      vertex -110 28.1411 9.95818
    endloop
  endfacet
  facet normal -0 0.663123 0.74851
    outer loop
      vertex -110 28.1411 9.95818
      vertex -70 26.7081 11.2277
      vertex -70 28.1411 9.95818
    endloop
  endfacet
  facet normal 0 0.663123 0.74851
    outer loop
      vertex -70 26.7081 11.2277
      vertex -110 28.1411 9.95818
      vertex -110 26.7081 11.2277
    endloop
  endfacet
  facet normal 0 0.822978 -0.568073
    outer loop
      vertex -70 26.2599 14.9184
      vertex -110 26.3162 15
      vertex -70 26.3162 15
    endloop
  endfacet
  facet normal 0 0.822978 -0.568073
    outer loop
      vertex -110 26.3162 15
      vertex -70 26.2599 14.9184
      vertex -110 26.2599 14.9184
    endloop
  endfacet
  facet normal 0 0.935016 0.354606
    outer loop
      vertex -70 26.7081 11.2277
      vertex -110 26.0292 13.0179
      vertex -70 26.0292 13.0179
    endloop
  endfacet
  facet normal 0 0.935016 0.354606
    outer loop
      vertex -110 26.0292 13.0179
      vertex -70 26.7081 11.2277
      vertex -110 26.7081 11.2277
    endloop
  endfacet
  facet normal 0 0.992709 -0.120536
    outer loop
      vertex -70 26.0292 13.0179
      vertex -110 26.2599 14.9184
      vertex -70 26.2599 14.9184
    endloop
  endfacet
  facet normal 0 0.992709 -0.120536
    outer loop
      vertex -110 26.2599 14.9184
      vertex -70 26.0292 13.0179
      vertex -110 26.0292 13.0179
    endloop
  endfacet
  facet normal 0 -0.239315 0.970942
    outer loop
      vertex -110 -28.1411 9.95818
      vertex -70 -30 9.5
      vertex -70 -28.1411 9.95818
    endloop
  endfacet
  facet normal 0 -0.239315 0.970942
    outer loop
      vertex -70 -30 9.5
      vertex -110 -28.1411 9.95818
      vertex -110 -30 9.5
    endloop
  endfacet
  facet normal 0 -0.992709 -0.120536
    outer loop
      vertex -110 -26.0292 13.0179
      vertex -70 -26.2599 14.9184
      vertex -110 -26.2599 14.9184
    endloop
  endfacet
  facet normal 0 -0.992709 -0.120536
    outer loop
      vertex -70 -26.2599 14.9184
      vertex -110 -26.0292 13.0179
      vertex -70 -26.0292 13.0179
    endloop
  endfacet
  facet normal 0 -0.663123 0.74851
    outer loop
      vertex -110 -26.7081 11.2277
      vertex -70 -28.1411 9.95818
      vertex -70 -26.7081 11.2277
    endloop
  endfacet
  facet normal 0 -0.663123 0.74851
    outer loop
      vertex -70 -28.1411 9.95818
      vertex -110 -26.7081 11.2277
      vertex -110 -28.1411 9.95818
    endloop
  endfacet
  facet normal 0 -0.822978 -0.568073
    outer loop
      vertex -110 -26.2599 14.9184
      vertex -70 -26.3162 15
      vertex -110 -26.3162 15
    endloop
  endfacet
  facet normal 0 -0.822978 -0.568073
    outer loop
      vertex -70 -26.3162 15
      vertex -110 -26.2599 14.9184
      vertex -70 -26.2599 14.9184
    endloop
  endfacet
  facet normal -0 0.239316 0.970942
    outer loop
      vertex -110 -30 9.5
      vertex -70 -31.8589 9.95818
      vertex -70 -30 9.5
    endloop
  endfacet
  facet normal 0 0.239316 0.970942
    outer loop
      vertex -70 -31.8589 9.95818
      vertex -110 -30 9.5
      vertex -110 -31.8589 9.95818
    endloop
  endfacet
  facet normal 0 -0.935016 0.354606
    outer loop
      vertex -110 -26.7081 11.2277
      vertex -70 -26.0292 13.0179
      vertex -110 -26.0292 13.0179
    endloop
  endfacet
  facet normal 0 -0.935016 0.354606
    outer loop
      vertex -70 -26.0292 13.0179
      vertex -110 -26.7081 11.2277
      vertex -70 -26.7081 11.2277
    endloop
  endfacet
  facet normal -0 0.663123 0.748511
    outer loop
      vertex -110 -31.8589 9.95818
      vertex -70 -33.2919 11.2277
      vertex -70 -31.8589 9.95818
    endloop
  endfacet
  facet normal 0 0.663123 0.748511
    outer loop
      vertex -70 -33.2919 11.2277
      vertex -110 -31.8589 9.95818
      vertex -110 -33.2919 11.2277
    endloop
  endfacet
  facet normal 0 0.822978 -0.568073
    outer loop
      vertex -70 -33.7401 14.9184
      vertex -110 -33.6838 15
      vertex -70 -33.6838 15
    endloop
  endfacet
  facet normal 0 0.822978 -0.568073
    outer loop
      vertex -110 -33.6838 15
      vertex -70 -33.7401 14.9184
      vertex -110 -33.7401 14.9184
    endloop
  endfacet
  facet normal 0 0.935017 0.354604
    outer loop
      vertex -70 -33.2919 11.2277
      vertex -110 -33.9708 13.0179
      vertex -70 -33.9708 13.0179
    endloop
  endfacet
  facet normal 0 0.935017 0.354604
    outer loop
      vertex -110 -33.9708 13.0179
      vertex -70 -33.2919 11.2277
      vertex -110 -33.2919 11.2277
    endloop
  endfacet
  facet normal 0 0.992709 -0.120535
    outer loop
      vertex -70 -33.9708 13.0179
      vertex -110 -33.7401 14.9184
      vertex -70 -33.7401 14.9184
    endloop
  endfacet
  facet normal 0 0.992709 -0.120535
    outer loop
      vertex -110 -33.7401 14.9184
      vertex -70 -33.9708 13.0179
      vertex -110 -33.9708 13.0179
    endloop
  endfacet
  facet normal -1 0 0
    outer loop
      vertex -110 33.2919 11.2277
      vertex -110 40 15
      vertex -110 40 5
    endloop
  endfacet
  facet normal -1 0 0
    outer loop
      vertex -110 40 15
      vertex -110 33.2919 11.2277
      vertex -110 33.9708 13.0179
    endloop
  endfacet
  facet normal -1 0 0
    outer loop
      vertex -110 40 5
      vertex -110 31.8589 9.95818
      vertex -110 33.2919 11.2277
    endloop
  endfacet
  facet normal -1 0 0
    outer loop
      vertex -110 40 5
      vertex -110 30 9.5
      vertex -110 31.8589 9.95818
    endloop
  endfacet
  facet normal -1 0 0
    outer loop
      vertex -110 40 5
      vertex -110 28.1411 9.95818
      vertex -110 30 9.5
    endloop
  endfacet
  facet normal -1 0 0
    outer loop
      vertex -110 26.7081 11.2277
      vertex -110 15 15
      vertex -110 26.0292 13.0179
    endloop
  endfacet
  facet normal -1 0 0
    outer loop
      vertex -110 28.1411 9.95818
      vertex -110 15 15
      vertex -110 26.7081 11.2277
    endloop
  endfacet
  facet normal -1 0 0
    outer loop
      vertex -110 -28.1411 9.95818
      vertex -110 28.1411 9.95818
      vertex -110 40 5
    endloop
  endfacet
  facet normal -1 0 0
    outer loop
      vertex -110 15 15
      vertex -110 -15 15
      vertex -110 15 16
    endloop
  endfacet
  facet normal -1 0 0
    outer loop
      vertex -110 28.1411 9.95818
      vertex -110 -28.1411 9.95818
      vertex -110 15 15
    endloop
  endfacet
  facet normal -1 -0 0
    outer loop
      vertex -110 15 15
      vertex -110 -28.1411 9.95818
      vertex -110 -15 15
    endloop
  endfacet
  facet normal -1 0 0
    outer loop
      vertex -110 -15 15
      vertex -110 -26.7081 11.2277
      vertex -110 -26.0292 13.0179
    endloop
  endfacet
  facet normal -1 0 0
    outer loop
      vertex -110 -15 15
      vertex -110 -28.1411 9.95818
      vertex -110 -26.7081 11.2277
    endloop
  endfacet
  facet normal -1 0 0
    outer loop
      vertex -110 -40 5
      vertex -110 -28.1411 9.95818
      vertex -110 40 5
    endloop
  endfacet
  facet normal -1 0 0
    outer loop
      vertex -110 -40 15
      vertex -110 -33.2919 11.2277
      vertex -110 -40 5
    endloop
  endfacet
  facet normal -1 -0 0
    outer loop
      vertex -110 -31.8589 9.95818
      vertex -110 -40 5
      vertex -110 -33.2919 11.2277
    endloop
  endfacet
  facet normal -1 -0 0
    outer loop
      vertex -110 -30 9.5
      vertex -110 -40 5
      vertex -110 -31.8589 9.95818
    endloop
  endfacet
  facet normal -1 0 0
    outer loop
      vertex -110 -28.1411 9.95818
      vertex -110 -40 5
      vertex -110 -30 9.5
    endloop
  endfacet
  facet normal -1 0 0
    outer loop
      vertex -110 33.7401 14.9184
      vertex -110 40 15
      vertex -110 33.9708 13.0179
    endloop
  endfacet
  facet normal -1 -0 0
    outer loop
      vertex -110 40 15
      vertex -110 33.7401 14.9184
      vertex -110 33.6838 15
    endloop
  endfacet
  facet normal -1 0 0
    outer loop
      vertex -110 26.2599 14.9184
      vertex -110 15 15
      vertex -110 26.3162 15
    endloop
  endfacet
  facet normal -1 0 0
    outer loop
      vertex -110 15 15
      vertex -110 26.2599 14.9184
      vertex -110 26.0292 13.0179
    endloop
  endfacet
  facet normal -1 -0 0
    outer loop
      vertex -110 15 16
      vertex -110 -15 15
      vertex -110 -15 16
    endloop
  endfacet
  facet normal -1 0 0
    outer loop
      vertex -110 -26.2599 14.9184
      vertex -110 -15 15
      vertex -110 -26.0292 13.0179
    endloop
  endfacet
  facet normal -1 -0 0
    outer loop
      vertex -110 -15 15
      vertex -110 -26.2599 14.9184
      vertex -110 -26.3162 15
    endloop
  endfacet
  facet normal -1 0 0
    outer loop
      vertex -110 -33.2919 11.2277
      vertex -110 -40 15
      vertex -110 -33.9708 13.0179
    endloop
  endfacet
  facet normal -1 0 0
    outer loop
      vertex -110 -33.7401 14.9184
      vertex -110 -40 15
      vertex -110 -33.6838 15
    endloop
  endfacet
  facet normal -1 0 0
    outer loop
      vertex -110 -33.9708 13.0179
      vertex -110 -40 15
      vertex -110 -33.7401 14.9184
    endloop
  endfacet
  facet normal 0 0 1
    outer loop
      vertex -70 26.3162 15
      vertex -70.7322 16.7678 15
      vertex -70 15 15
    endloop
  endfacet
  facet normal 0 0 1
    outer loop
      vertex -70 26.3162 15
      vertex -72.5 17.5 15
      vertex -70.7322 16.7678 15
    endloop
  endfacet
  facet normal 0 0 1
    outer loop
      vertex -70 26.3162 15
      vertex -107.5 17.5 15
      vertex -72.5 17.5 15
    endloop
  endfacet
  facet normal -0 0 1
    outer loop
      vertex -110 26.3162 15
      vertex -107.5 17.5 15
      vertex -70 26.3162 15
    endloop
  endfacet
  facet normal 0 0 1
    outer loop
      vertex -110 26.3162 15
      vertex -109.268 16.7678 15
      vertex -107.5 17.5 15
    endloop
  endfacet
  facet normal 0 0 1
    outer loop
      vertex -109.268 16.7678 15
      vertex -110 26.3162 15
      vertex -110 15 15
    endloop
  endfacet
  facet normal -0 0 1
    outer loop
      vertex -70.7322 -16.7678 15
      vertex -70 -26.3162 15
      vertex -70 -15 15
    endloop
  endfacet
  facet normal -0 0 1
    outer loop
      vertex -72.5 -17.5 15
      vertex -70 -26.3162 15
      vertex -70.7322 -16.7678 15
    endloop
  endfacet
  facet normal -0 0 1
    outer loop
      vertex -107.5 -17.5 15
      vertex -70 -26.3162 15
      vertex -72.5 -17.5 15
    endloop
  endfacet
  facet normal 0 0 1
    outer loop
      vertex -107.5 -17.5 15
      vertex -110 -26.3162 15
      vertex -70 -26.3162 15
    endloop
  endfacet
  facet normal 0 0 1
    outer loop
      vertex -109.268 -16.7678 15
      vertex -110 -26.3162 15
      vertex -107.5 -17.5 15
    endloop
  endfacet
  facet normal 0 0 1
    outer loop
      vertex -110 -26.3162 15
      vertex -109.268 -16.7678 15
      vertex -110 -15 15
    endloop
  endfacet
  facet normal -0 0 1
    outer loop
      vertex -110 -33.6838 15
      vertex -70 -40 15
      vertex -70 -33.6838 15
    endloop
  endfacet
  facet normal 0 0 1
    outer loop
      vertex -70 -40 15
      vertex -110 -33.6838 15
      vertex -110 -40 15
    endloop
  endfacet
  facet normal -0 0 1
    outer loop
      vertex -110 40 15
      vertex -70 33.6838 15
      vertex -70 40 15
    endloop
  endfacet
  facet normal 0 0 1
    outer loop
      vertex -70 33.6838 15
      vertex -110 40 15
      vertex -110 33.6838 15
    endloop
  endfacet
  facet normal 1 0 0
    outer loop
      vertex -70 -33.7401 14.9184
      vertex -70 -40 15
      vertex -70 -33.9708 13.0179
    endloop
  endfacet
  facet normal 1 -0 0
    outer loop
      vertex -70 -40 15
      vertex -70 -33.7401 14.9184
      vertex -70 -33.6838 15
    endloop
  endfacet
  facet normal 1 0 0
    outer loop
      vertex -70 26.2599 14.9184
      vertex -70 15 15
      vertex -70 26.0292 13.0179
    endloop
  endfacet
  facet normal 1 -0 0
    outer loop
      vertex -70 15 15
      vertex -70 26.2599 14.9184
      vertex -70 26.3162 15
    endloop
  endfacet
  facet normal 1 0 0
    outer loop
      vertex -70 33.2919 11.2277
      vertex -70 40 15
      vertex -70 33.9708 13.0179
    endloop
  endfacet
  facet normal 1 0 0
    outer loop
      vertex -70 40 15
      vertex -70 33.7401 14.9184
      vertex -70 33.9708 13.0179
    endloop
  endfacet
  facet normal 1 0 -0
    outer loop
      vertex -70 33.7401 14.9184
      vertex -70 40 15
      vertex -70 33.6838 15
    endloop
  endfacet
  facet normal 1 0 0
    outer loop
      vertex -70 40 15
      vertex -70 33.2919 11.2277
      vertex -70 40 5
    endloop
  endfacet
  facet normal 1 -0 0
    outer loop
      vertex -70 31.8589 9.95818
      vertex -70 40 5
      vertex -70 33.2919 11.2277
    endloop
  endfacet
  facet normal 1 -0 0
    outer loop
      vertex -70 30 9.5
      vertex -70 40 5
      vertex -70 31.8589 9.95818
    endloop
  endfacet
  facet normal 1 0 0
    outer loop
      vertex -70 28.1411 9.95818
      vertex -70 40 5
      vertex -70 30 9.5
    endloop
  endfacet
  facet normal 1 0 0
    outer loop
      vertex -70 15 15
      vertex -70 26.7081 11.2277
      vertex -70 26.0292 13.0179
    endloop
  endfacet
  facet normal 1 0 0
    outer loop
      vertex -70 15 15
      vertex -70 28.1411 9.95818
      vertex -70 26.7081 11.2277
    endloop
  endfacet
  facet normal 1 0 0
    outer loop
      vertex -70 -28.1411 9.95818
      vertex -70 28.1411 9.95818
      vertex -70 15 15
    endloop
  endfacet
  facet normal 1 0 0
    outer loop
      vertex -70 -28.1411 9.95818
      vertex -70 15 15
      vertex -70 -15 15
    endloop
  endfacet
  facet normal 1 0 0
    outer loop
      vertex -70 -26.7081 11.2277
      vertex -70 -15 15
      vertex -70 -26.0292 13.0179
    endloop
  endfacet
  facet normal 1 0 0
    outer loop
      vertex -70 -28.1411 9.95818
      vertex -70 -15 15
      vertex -70 -26.7081 11.2277
    endloop
  endfacet
  facet normal 1 0 0
    outer loop
      vertex -70 28.1411 9.95818
      vertex -70 -28.1411 9.95818
      vertex -70 40 5
    endloop
  endfacet
  facet normal 1 0 0
    outer loop
      vertex -70 -40 5
      vertex -70 -28.1411 9.95818
      vertex -70 -30 9.5
    endloop
  endfacet
  facet normal 1 0 0
    outer loop
      vertex -70 -40 15
      vertex -70 -33.2919 11.2277
      vertex -70 -33.9708 13.0179
    endloop
  endfacet
  facet normal 1 0 0
    outer loop
      vertex -70 -40 5
      vertex -70 -33.2919 11.2277
      vertex -70 -40 15
    endloop
  endfacet
  facet normal 1 0 0
    outer loop
      vertex -70 -28.1411 9.95818
      vertex -70 -40 5
      vertex -70 40 5
    endloop
  endfacet
  facet normal 1 0 0
    outer loop
      vertex -70 -31.8589 9.95818
      vertex -70 -40 5
      vertex -70 -30 9.5
    endloop
  endfacet
  facet normal 1 0 0
    outer loop
      vertex -70 -33.2919 11.2277
      vertex -70 -40 5
      vertex -70 -31.8589 9.95818
    endloop
  endfacet
  facet normal 1 0 0
    outer loop
      vertex -70 -15 15
      vertex -70 -26.2599 14.9184
      vertex -70 -26.0292 13.0179
    endloop
  endfacet
  facet normal 1 0 -0
    outer loop
      vertex -70 -26.2599 14.9184
      vertex -70 -15 15
      vertex -70 -26.3162 15
    endloop
  endfacet
  facet normal 0 0 -1
    outer loop
      vertex -110 -40 5
      vertex -70 40 5
      vertex -70 -40 5
    endloop
  endfacet
  facet normal -0 0 -1
    outer loop
      vertex -70 40 5
      vertex -110 -40 5
      vertex -110 40 5
    endloop
  endfacet
  facet normal 0 -1 0
    outer loop
      vertex -110 -40 5
      vertex -70 -40 15
      vertex -110 -40 15
    endloop
  endfacet
  facet normal 0 -1 -0
    outer loop
      vertex -70 -40 15
      vertex -110 -40 5
      vertex -70 -40 5
    endloop
  endfacet
  facet normal 0 1 -0
    outer loop
      vertex -70 40 5
      vertex -110 40 15
      vertex -70 40 15
    endloop
  endfacet
  facet normal 0 1 0
    outer loop
      vertex -110 40 15
      vertex -70 40 5
      vertex -110 40 5
    endloop
  endfacet
  facet normal 0.502702 0.86446 -0
    outer loop
      vertex -59 9.94522 33.9547
      vertex -70.7322 16.7678 16
      vertex -59 9.94522 36.0453
    endloop
  endfacet
  facet normal 0.502702 0.86446 0
    outer loop
      vertex -70.7322 16.7678 16
      vertex -59 9.94522 33.9547
      vertex -70.7322 16.7678 15
    endloop
  endfacet
  facet normal 0 -0.499998 0.866026
    outer loop
      vertex -60 -4.06737 44.1355
      vertex 60 -5.87785 43.0902
      vertex 60 -4.06737 44.1355
    endloop
  endfacet
  facet normal 0 -0.499998 0.866026
    outer loop
      vertex 60 -5.87785 43.0902
      vertex -60 -4.06737 44.1355
      vertex -60 -5.87785 43.0902
    endloop
  endfacet
  facet normal 0.808835 0.393473 -0.436996
    outer loop
      vertex -59 5.87785 26.9098
      vertex -70.7322 16.7678 15
      vertex -59 7.43145 28.3087
    endloop
  endfacet
  facet normal 0 1 -0
    outer loop
      vertex -72.5 17.5 15
      vertex -107.5 17.5 16
      vertex -72.5 17.5 16
    endloop
  endfacet
  facet normal 0 1 0
    outer loop
      vertex -107.5 17.5 16
      vertex -72.5 17.5 15
      vertex -107.5 17.5 15
    endloop
  endfacet
  facet normal -0.343431 0.469587 0.813353
    outer loop
      vertex -60 5.87785 43.0902
      vertex -109.268 16.7678 16
      vertex -60 4.06737 44.1355
    endloop
  endfacet
  facet normal -0.261642 0.631661 0.729758
    outer loop
      vertex -107.5 17.5 16
      vertex -109.268 16.7678 16
      vertex -60 5.87785 43.0902
    endloop
  endfacet
  facet normal -0.251733 -0.647583 0.719213
    outer loop
      vertex -60 -5.87785 43.0902
      vertex -107.5 -17.5 16
      vertex -60 -7.43145 41.6913
    endloop
  endfacet
  facet normal -0.382683 -0.92388 0
    outer loop
      vertex -109.268 -16.7678 15
      vertex -107.5 -17.5 16
      vertex -109.268 -16.7678 16
    endloop
  endfacet
  facet normal -0.382683 -0.92388 -0
    outer loop
      vertex -107.5 -17.5 16
      vertex -109.268 -16.7678 15
      vertex -107.5 -17.5 15
    endloop
  endfacet
  facet normal -0.144883 0.800481 0.581583
    outer loop
      vertex -60 8.66025 40
      vertex -107.5 17.5 16
      vertex -60 7.43145 41.6913
    endloop
  endfacet
  facet normal -0.501718 0 0.865031
    outer loop
      vertex -110 15 16
      vertex -110 -15 16
      vertex -60 0 45
    endloop
  endfacet
  facet normal 0.795001 -0.490756 -0.356555
    outer loop
      vertex -59 -8.66025 30
      vertex -70.7322 -16.7678 15
      vertex -59 -7.43145 28.3087
    endloop
  endfacet
  facet normal 0 0.940385 0.340112
    outer loop
      vertex -72.5 17.5 16
      vertex -60 9.51056 38.0902
      vertex -59 9.51056 38.0902
    endloop
  endfacet
  facet normal 0 0.940385 0.340112
    outer loop
      vertex -60 9.51056 38.0902
      vertex -72.5 17.5 16
      vertex -107.5 17.5 16
    endloop
  endfacet
  facet normal 0.382683 0.92388 -0
    outer loop
      vertex -70.7322 16.7678 15
      vertex -72.5 17.5 16
      vertex -70.7322 16.7678 16
    endloop
  endfacet
  facet normal 0.382683 0.92388 0
    outer loop
      vertex -72.5 17.5 16
      vertex -70.7322 16.7678 15
      vertex -72.5 17.5 15
    endloop
  endfacet
  facet normal 0.672673 0 -0.73994
    outer loop
      vertex -59 0 25
      vertex -70 -15 15
      vertex -70 15 15
    endloop
  endfacet
  facet normal 0.806025 0.333866 -0.488731
    outer loop
      vertex -70 15 15
      vertex -70.7322 16.7678 15
      vertex -59 5.87785 26.9098
    endloop
  endfacet
  facet normal -0.478859 0.0917651 0.873083
    outer loop
      vertex -60 2.07912 44.7815
      vertex -110 15 16
      vertex -60 0 45
    endloop
  endfacet
  facet normal -0.92388 -0.382683 0
    outer loop
      vertex -109.268 -16.7678 15
      vertex -110 -15 16
      vertex -110 -15 15
    endloop
  endfacet
  facet normal -0.92388 -0.382683 0
    outer loop
      vertex -110 -15 16
      vertex -109.268 -16.7678 15
      vertex -109.268 -16.7678 16
    endloop
  endfacet
  facet normal -0.453134 -0.187694 0.871459
    outer loop
      vertex -60 -2.07912 44.7815
      vertex -110 -15 16
      vertex -109.268 -16.7678 16
    endloop
  endfacet
  facet normal -0.343431 -0.469587 0.813353
    outer loop
      vertex -60 -4.06737 44.1355
      vertex -109.268 -16.7678 16
      vertex -60 -5.87785 43.0902
    endloop
  endfacet
  facet normal 0.75498 0.599055 -0.266717
    outer loop
      vertex -59 8.66025 30
      vertex -70.7322 16.7678 15
      vertex -59 9.51056 31.9098
    endloop
  endfacet
  facet normal 0.780006 0.193374 -0.595145
    outer loop
      vertex -59 2.07912 25.2185
      vertex -70 15 15
      vertex -59 4.06737 25.8645
    endloop
  endfacet
  facet normal 0.804041 0.297287 -0.514916
    outer loop
      vertex -59 4.06737 25.8645
      vertex -70 15 15
      vertex -59 5.87785 26.9098
    endloop
  endfacet
  facet normal 0.806025 -0.333866 -0.488731
    outer loop
      vertex -59 -5.87785 26.9098
      vertex -70.7322 -16.7678 15
      vertex -70 -15 15
    endloop
  endfacet
  facet normal 0.502702 -0.86446 0
    outer loop
      vertex -70.7322 -16.7678 16
      vertex -59 -9.94522 33.9547
      vertex -59 -9.94522 36.0453
    endloop
  endfacet
  facet normal 0.502702 -0.86446 0
    outer loop
      vertex -59 -9.94522 33.9547
      vertex -70.7322 -16.7678 16
      vertex -70.7322 -16.7678 15
    endloop
  endfacet
  facet normal 0 -1 0
    outer loop
      vertex -107.5 -17.5 15
      vertex -72.5 -17.5 16
      vertex -107.5 -17.5 16
    endloop
  endfacet
  facet normal 0 -1 -0
    outer loop
      vertex -72.5 -17.5 16
      vertex -107.5 -17.5 15
      vertex -72.5 -17.5 15
    endloop
  endfacet
  facet normal 0.381127 0.920122 0.0901016
    outer loop
      vertex -70.7322 16.7678 16
      vertex -72.5 17.5 16
      vertex -59 9.94522 36.0453
    endloop
  endfacet
  facet normal 0.23215 0.951425 0.202231
    outer loop
      vertex -59 9.94522 36.0453
      vertex -72.5 17.5 16
      vertex -59 9.51056 38.0902
    endloop
  endfacet
  facet normal -0.144883 -0.800481 0.581583
    outer loop
      vertex -60 -7.43145 41.6913
      vertex -107.5 -17.5 16
      vertex -60 -8.66025 40
    endloop
  endfacet
  facet normal -0 0.309018 0.951056
    outer loop
      vertex -60 4.06737 44.1355
      vertex 59 2.07912 44.7815
      vertex 59 4.06737 44.1355
    endloop
  endfacet
  facet normal 0 0.309018 0.951056
    outer loop
      vertex 59 2.07912 44.7815
      vertex -60 4.06737 44.1355
      vertex -60 2.07912 44.7815
    endloop
  endfacet
  facet normal -0 0.104529 0.994522
    outer loop
      vertex -60 2.07912 44.7815
      vertex 59 5.61147e-015 45
      vertex 59 2.07912 44.7815
    endloop
  endfacet
  facet normal -4.92909e-018 0.104529 0.994522
    outer loop
      vertex -60 0 45
      vertex 59 5.61147e-015 45
      vertex -60 2.07912 44.7815
    endloop
  endfacet
  facet normal 0 0 1
    outer loop
      vertex 59 5.61147e-015 45
      vertex -60 0 45
      vertex 59 2.86841e-015 45
    endloop
  endfacet
  facet normal 0 0 1
    outer loop
      vertex 59 1.89814e-015 45
      vertex 60 0 45
      vertex 60 1.83691e-015 45
    endloop
  endfacet
  facet normal 0 0 1
    outer loop
      vertex 59 1.89814e-015 45
      vertex -60 0 45
      vertex 60 0 45
    endloop
  endfacet
  facet normal 0 0 1
    outer loop
      vertex 59 2.86841e-015 45
      vertex -60 0 45
      vertex 59 1.89814e-015 45
    endloop
  endfacet
  facet normal -0.92388 0.382683 0
    outer loop
      vertex -110 15 15
      vertex -109.268 16.7678 16
      vertex -109.268 16.7678 15
    endloop
  endfacet
  facet normal -0.92388 0.382683 0
    outer loop
      vertex -109.268 16.7678 16
      vertex -110 15 15
      vertex -110 15 16
    endloop
  endfacet
  facet normal 0 -0.669131 0.743145
    outer loop
      vertex -60 -5.87785 43.0902
      vertex 60 -7.43145 41.6913
      vertex 60 -5.87785 43.0902
    endloop
  endfacet
  facet normal 0 -0.669131 0.743145
    outer loop
      vertex 60 -7.43145 41.6913
      vertex -60 -5.87785 43.0902
      vertex -60 -7.43145 41.6913
    endloop
  endfacet
  facet normal -0 0.669131 0.743145
    outer loop
      vertex -60 7.43145 41.6913
      vertex 59 5.87785 43.0902
      vertex 59 7.43145 41.6913
    endloop
  endfacet
  facet normal 0 0.669131 0.743145
    outer loop
      vertex 59 5.87785 43.0902
      vertex -60 7.43145 41.6913
      vertex -60 5.87785 43.0902
    endloop
  endfacet
  facet normal 0.795001 0.490756 -0.356555
    outer loop
      vertex -59 7.43145 28.3087
      vertex -70.7322 16.7678 15
      vertex -59 8.66025 30
    endloop
  endfacet
  facet normal 0.670895 0.725347 -0.154177
    outer loop
      vertex -59 9.51056 31.9098
      vertex -70.7322 16.7678 15
      vertex -59 9.94522 33.9547
    endloop
  endfacet
  facet normal 0.723036 0.0722096 -0.687026
    outer loop
      vertex -59 0 25
      vertex -70 15 15
      vertex -59 2.07912 25.2185
    endloop
  endfacet
  facet normal 0.723036 -0.0722096 -0.687026
    outer loop
      vertex -59 -2.07912 25.2185
      vertex -70 -15 15
      vertex -59 0 25
    endloop
  endfacet
  facet normal 0.382683 -0.92388 0
    outer loop
      vertex -72.5 -17.5 15
      vertex -70.7322 -16.7678 16
      vertex -72.5 -17.5 16
    endloop
  endfacet
  facet normal 0.382683 -0.92388 0
    outer loop
      vertex -70.7322 -16.7678 16
      vertex -72.5 -17.5 15
      vertex -70.7322 -16.7678 15
    endloop
  endfacet
  facet normal -0.261642 -0.631661 0.729758
    outer loop
      vertex -60 -5.87785 43.0902
      vertex -109.268 -16.7678 16
      vertex -107.5 -17.5 16
    endloop
  endfacet
  facet normal -0.420497 -0.28037 0.862888
    outer loop
      vertex -60 -2.07912 44.7815
      vertex -109.268 -16.7678 16
      vertex -60 -4.06737 44.1355
    endloop
  endfacet
  facet normal -0.251733 0.647583 0.719213
    outer loop
      vertex -60 7.43145 41.6913
      vertex -107.5 17.5 16
      vertex -60 5.87785 43.0902
    endloop
  endfacet
  facet normal -0.382683 0.92388 0
    outer loop
      vertex -107.5 17.5 15
      vertex -109.268 16.7678 16
      vertex -107.5 17.5 16
    endloop
  endfacet
  facet normal -0.382683 0.92388 0
    outer loop
      vertex -109.268 16.7678 16
      vertex -107.5 17.5 15
      vertex -109.268 16.7678 15
    endloop
  endfacet
  facet normal 0 -0.309018 0.951056
    outer loop
      vertex -60 -2.07912 44.7815
      vertex 60 -4.06737 44.1355
      vertex 60 -2.07912 44.7815
    endloop
  endfacet
  facet normal 0 -0.309018 0.951056
    outer loop
      vertex 60 -4.06737 44.1355
      vertex -60 -2.07912 44.7815
      vertex -60 -4.06737 44.1355
    endloop
  endfacet
  facet normal 0 -0.940385 0.340112
    outer loop
      vertex -72.5 -17.5 16
      vertex -60 -9.51056 38.0902
      vertex -107.5 -17.5 16
    endloop
  endfacet
  facet normal 0 -0.940385 0.340112
    outer loop
      vertex -60 -9.51056 38.0902
      vertex -72.5 -17.5 16
      vertex -59 -9.51056 38.0902
    endloop
  endfacet
  facet normal 0.381127 -0.920122 0.0901016
    outer loop
      vertex -59 -9.94522 36.0453
      vertex -72.5 -17.5 16
      vertex -70.7322 -16.7678 16
    endloop
  endfacet
  facet normal 0.670895 -0.725347 -0.154177
    outer loop
      vertex -59 -9.94522 33.9547
      vertex -70.7322 -16.7678 15
      vertex -59 -9.51056 31.9098
    endloop
  endfacet
  facet normal 0.75498 -0.599055 -0.266717
    outer loop
      vertex -59 -9.51056 31.9098
      vertex -70.7322 -16.7678 15
      vertex -59 -8.66025 30
    endloop
  endfacet
  facet normal -0.453134 0.187694 0.871459
    outer loop
      vertex -109.268 16.7678 16
      vertex -110 15 16
      vertex -60 2.07912 44.7815
    endloop
  endfacet
  facet normal -0.420497 0.28037 0.862888
    outer loop
      vertex -60 4.06737 44.1355
      vertex -109.268 16.7678 16
      vertex -60 2.07912 44.7815
    endloop
  endfacet
  facet normal 0 0.809017 0.587785
    outer loop
      vertex 59 8.66025 40
      vertex -60 7.43145 41.6913
      vertex 59 7.43145 41.6913
    endloop
  endfacet
  facet normal 0 0.809017 0.587785
    outer loop
      vertex -60 7.43145 41.6913
      vertex 59 8.66025 40
      vertex -60 8.66025 40
    endloop
  endfacet
  facet normal 0.808835 -0.393473 -0.436996
    outer loop
      vertex -59 -7.43145 28.3087
      vertex -70.7322 -16.7678 15
      vertex -59 -5.87785 26.9098
    endloop
  endfacet
  facet normal 0.804041 -0.297287 -0.514916
    outer loop
      vertex -59 -5.87785 26.9098
      vertex -70 -15 15
      vertex -59 -4.06737 25.8645
    endloop
  endfacet
  facet normal 0 -0.809017 0.587785
    outer loop
      vertex -60 -8.66025 40
      vertex 60 -7.43145 41.6913
      vertex -60 -7.43145 41.6913
    endloop
  endfacet
  facet normal 0 -0.809017 0.587785
    outer loop
      vertex 60 -7.43145 41.6913
      vertex -60 -8.66025 40
      vertex 60 -8.66025 40
    endloop
  endfacet
  facet normal 0 -0.104529 0.994522
    outer loop
      vertex -60 0 45
      vertex 60 -2.07912 44.7815
      vertex 60 0 45
    endloop
  endfacet
  facet normal 0 -0.104529 0.994522
    outer loop
      vertex 60 -2.07912 44.7815
      vertex -60 0 45
      vertex -60 -2.07912 44.7815
    endloop
  endfacet
  facet normal -0.478859 -0.0917651 0.873083
    outer loop
      vertex -60 0 45
      vertex -110 -15 16
      vertex -60 -2.07912 44.7815
    endloop
  endfacet
  facet normal 0.23215 -0.951425 0.202231
    outer loop
      vertex -59 -9.51056 38.0902
      vertex -72.5 -17.5 16
      vertex -59 -9.94522 36.0453
    endloop
  endfacet
  facet normal -0.0354762 0.91297 0.406481
    outer loop
      vertex -60 9.51056 38.0902
      vertex -107.5 17.5 16
      vertex -60 8.66025 40
    endloop
  endfacet
  facet normal -0 0.913545 0.406737
    outer loop
      vertex -59 9.51056 38.0902
      vertex 59 8.66025 40
      vertex 59 9.51056 38.0902
    endloop
  endfacet
  facet normal 0 0.913545 0.406737
    outer loop
      vertex 59 8.66025 40
      vertex -59 9.51056 38.0902
      vertex -60 8.66025 40
    endloop
  endfacet
  facet normal 0 0.913545 0.406737
    outer loop
      vertex -60 8.66025 40
      vertex -59 9.51056 38.0902
      vertex -60 9.51056 38.0902
    endloop
  endfacet
  facet normal 0.780006 -0.193374 -0.595145
    outer loop
      vertex -59 -4.06737 25.8645
      vertex -70 -15 15
      vertex -59 -2.07912 25.2185
    endloop
  endfacet
  facet normal 0 -0.913545 0.406737
    outer loop
      vertex -59 -9.51056 38.0902
      vertex -60 -8.66025 40
      vertex -60 -9.51056 38.0902
    endloop
  endfacet
  facet normal 0 -0.913545 0.406737
    outer loop
      vertex -60 -8.66025 40
      vertex -59 -9.51056 38.0902
      vertex 60 -8.66025 40
    endloop
  endfacet
  facet normal 0 -0.913545 0.406737
    outer loop
      vertex 60 -8.66025 40
      vertex -59 -9.51056 38.0902
      vertex 60 -9.51056 38.0902
    endloop
  endfacet
  facet normal -0.0354762 -0.91297 0.406481
    outer loop
      vertex -60 -8.66025 40
      vertex -107.5 -17.5 16
      vertex -60 -9.51056 38.0902
    endloop
  endfacet
  facet normal -0 0.499998 0.866026
    outer loop
      vertex -60 5.87785 43.0902
      vertex 59 4.06737 44.1355
      vertex 59 5.87785 43.0902
    endloop
  endfacet
  facet normal 0 0.499998 0.866026
    outer loop
      vertex 59 4.06737 44.1355
      vertex -60 5.87785 43.0902
      vertex -60 4.06737 44.1355
    endloop
  endfacet
  facet normal -0 0.239316 0.970942
    outer loop
      vertex 70 -30 9.5
      vertex 110 -31.8589 9.95818
      vertex 110 -30 9.5
    endloop
  endfacet
  facet normal 0 0.239316 0.970942
    outer loop
      vertex 110 -31.8589 9.95818
      vertex 70 -30 9.5
      vertex 70 -31.8589 9.95818
    endloop
  endfacet
  facet normal 9.46721e-008 0.992709 -0.120535
    outer loop
      vertex 110 -33.9708 13.0179
      vertex 70 -33.7401 14.9184
      vertex 110 -33.7401 14.9184
    endloop
  endfacet
  facet normal 0 0.992709 -0.120536
    outer loop
      vertex 70 -33.7401 14.9184
      vertex 110 -33.9708 13.0179
      vertex 70 -33.9708 13.0179
    endloop
  endfacet
  facet normal -0 0.663123 0.748511
    outer loop
      vertex 70 -31.8589 9.95818
      vertex 110 -33.2919 11.2277
      vertex 110 -31.8589 9.95818
    endloop
  endfacet
  facet normal 0 0.663123 0.748511
    outer loop
      vertex 110 -33.2919 11.2277
      vertex 70 -31.8589 9.95818
      vertex 70 -33.2919 11.2277
    endloop
  endfacet
  facet normal 0 0.822978 -0.568073
    outer loop
      vertex 110 -33.7401 14.9184
      vertex 70 -33.6838 15
      vertex 110 -33.6838 15
    endloop
  endfacet
  facet normal 7.8487e-008 0.822996 -0.568047
    outer loop
      vertex 70 -33.6838 15
      vertex 110 -33.7401 14.9184
      vertex 70 -33.7401 14.9184
    endloop
  endfacet
  facet normal 0 0.935017 0.354604
    outer loop
      vertex 110 -33.2919 11.2277
      vertex 70 -33.9708 13.0179
      vertex 110 -33.9708 13.0179
    endloop
  endfacet
  facet normal 0 0.935017 0.354604
    outer loop
      vertex 70 -33.9708 13.0179
      vertex 110 -33.2919 11.2277
      vertex 70 -33.2919 11.2277
    endloop
  endfacet
  facet normal 0 -0.239315 0.970942
    outer loop
      vertex 70 -28.1411 9.95818
      vertex 110 -30 9.5
      vertex 110 -28.1411 9.95818
    endloop
  endfacet
  facet normal 0 -0.239315 0.970942
    outer loop
      vertex 110 -30 9.5
      vertex 70 -28.1411 9.95818
      vertex 70 -30 9.5
    endloop
  endfacet
  facet normal -3.16202e-008 -0.663123 0.74851
    outer loop
      vertex 70 -26.7081 11.2277
      vertex 110 -28.1411 9.95818
      vertex 110 -26.7081 11.2277
    endloop
  endfacet
  facet normal 0 -0.663123 0.748511
    outer loop
      vertex 110 -28.1411 9.95818
      vertex 70 -26.7081 11.2277
      vertex 70 -28.1411 9.95818
    endloop
  endfacet
  facet normal 0 -0.822978 -0.568073
    outer loop
      vertex 70 -26.2599 14.9184
      vertex 110 -26.3162 15
      vertex 70 -26.3162 15
    endloop
  endfacet
  facet normal 0 -0.822978 -0.568073
    outer loop
      vertex 110 -26.3162 15
      vertex 70 -26.2599 14.9184
      vertex 110 -26.2599 14.9184
    endloop
  endfacet
  facet normal 0 -0.935016 0.354605
    outer loop
      vertex 70 -26.7081 11.2277
      vertex 110 -26.0292 13.0179
      vertex 70 -26.0292 13.0179
    endloop
  endfacet
  facet normal -4.4585e-008 -0.935016 0.354606
    outer loop
      vertex 110 -26.0292 13.0179
      vertex 70 -26.7081 11.2277
      vertex 110 -26.7081 11.2277
    endloop
  endfacet
  facet normal 0 -0.992709 -0.120536
    outer loop
      vertex 70 -26.0292 13.0179
      vertex 110 -26.2599 14.9184
      vertex 70 -26.2599 14.9184
    endloop
  endfacet
  facet normal 0 -0.992709 -0.120536
    outer loop
      vertex 110 -26.2599 14.9184
      vertex 70 -26.0292 13.0179
      vertex 110 -26.0292 13.0179
    endloop
  endfacet
  facet normal -0 0.239315 0.970942
    outer loop
      vertex 70 30 9.5
      vertex 110 28.1411 9.95818
      vertex 110 30 9.5
    endloop
  endfacet
  facet normal 0 0.239315 0.970942
    outer loop
      vertex 110 28.1411 9.95818
      vertex 70 30 9.5
      vertex 70 28.1411 9.95818
    endloop
  endfacet
  facet normal 0 0.992709 -0.120536
    outer loop
      vertex 110 26.0292 13.0179
      vertex 70 26.2599 14.9184
      vertex 110 26.2599 14.9184
    endloop
  endfacet
  facet normal 0 0.992709 -0.120536
    outer loop
      vertex 70 26.2599 14.9184
      vertex 110 26.0292 13.0179
      vertex 70 26.0292 13.0179
    endloop
  endfacet
  facet normal -0 0.663123 0.748511
    outer loop
      vertex 70 28.1411 9.95818
      vertex 110 26.7081 11.2277
      vertex 110 28.1411 9.95818
    endloop
  endfacet
  facet normal 3.16202e-008 0.663123 0.74851
    outer loop
      vertex 110 26.7081 11.2277
      vertex 70 28.1411 9.95818
      vertex 70 26.7081 11.2277
    endloop
  endfacet
  facet normal 0 0.822978 -0.568073
    outer loop
      vertex 110 26.2599 14.9184
      vertex 70 26.3162 15
      vertex 110 26.3162 15
    endloop
  endfacet
  facet normal 0 0.822978 -0.568073
    outer loop
      vertex 70 26.3162 15
      vertex 110 26.2599 14.9184
      vertex 70 26.2599 14.9184
    endloop
  endfacet
  facet normal 0 -0.239316 0.970942
    outer loop
      vertex 70 31.8589 9.95818
      vertex 110 30 9.5
      vertex 110 31.8589 9.95818
    endloop
  endfacet
  facet normal 0 -0.239316 0.970942
    outer loop
      vertex 110 30 9.5
      vertex 70 31.8589 9.95818
      vertex 70 30 9.5
    endloop
  endfacet
  facet normal 0 0.935016 0.354605
    outer loop
      vertex 110 26.7081 11.2277
      vertex 70 26.0292 13.0179
      vertex 110 26.0292 13.0179
    endloop
  endfacet
  facet normal 4.4585e-008 0.935016 0.354606
    outer loop
      vertex 70 26.0292 13.0179
      vertex 110 26.7081 11.2277
      vertex 70 26.7081 11.2277
    endloop
  endfacet
  facet normal 0 -0.663123 0.748511
    outer loop
      vertex 70 33.2919 11.2277
      vertex 110 31.8589 9.95818
      vertex 110 33.2919 11.2277
    endloop
  endfacet
  facet normal 0 -0.663123 0.748511
    outer loop
      vertex 110 31.8589 9.95818
      vertex 70 33.2919 11.2277
      vertex 70 31.8589 9.95818
    endloop
  endfacet
  facet normal 0 -0.822978 -0.568073
    outer loop
      vertex 70 33.7401 14.9184
      vertex 110 33.6838 15
      vertex 70 33.6838 15
    endloop
  endfacet
  facet normal -7.8487e-008 -0.822996 -0.568047
    outer loop
      vertex 110 33.6838 15
      vertex 70 33.7401 14.9184
      vertex 110 33.7401 14.9184
    endloop
  endfacet
  facet normal 0 -0.935017 0.354604
    outer loop
      vertex 70 33.2919 11.2277
      vertex 110 33.9708 13.0179
      vertex 70 33.9708 13.0179
    endloop
  endfacet
  facet normal 0 -0.935017 0.354604
    outer loop
      vertex 110 33.9708 13.0179
      vertex 70 33.2919 11.2277
      vertex 110 33.2919 11.2277
    endloop
  endfacet
  facet normal -9.46721e-008 -0.992709 -0.120535
    outer loop
      vertex 70 33.9708 13.0179
      vertex 110 33.7401 14.9184
      vertex 70 33.7401 14.9184
    endloop
  endfacet
  facet normal 0 -0.992709 -0.120536
    outer loop
      vertex 110 33.7401 14.9184
      vertex 70 33.9708 13.0179
      vertex 110 33.9708 13.0179
    endloop
  endfacet
  facet normal 1 0 0
    outer loop
      vertex 110 -33.7401 14.9184
      vertex 110 -40 15
      vertex 110 -33.9708 13.0179
    endloop
  endfacet
  facet normal 1 -0 0
    outer loop
      vertex 110 -40 15
      vertex 110 -33.7401 14.9184
      vertex 110 -33.6838 15
    endloop
  endfacet
  facet normal 1 0 0
    outer loop
      vertex 110 15 16
      vertex 110 -15 16
      vertex 110 15 15
    endloop
  endfacet
  facet normal 1 0 0
    outer loop
      vertex 110 26.2599 14.9184
      vertex 110 15 15
      vertex 110 26.0292 13.0179
    endloop
  endfacet
  facet normal 1 -0 0
    outer loop
      vertex 110 15 15
      vertex 110 26.2599 14.9184
      vertex 110 26.3162 15
    endloop
  endfacet
  facet normal 1 0 0
    outer loop
      vertex 110 33.2919 11.2277
      vertex 110 40 15
      vertex 110 33.9708 13.0179
    endloop
  endfacet
  facet normal 1 0 0
    outer loop
      vertex 110 40 15
      vertex 110 33.7401 14.9184
      vertex 110 33.9708 13.0179
    endloop
  endfacet
  facet normal 1 0 -0
    outer loop
      vertex 110 33.7401 14.9184
      vertex 110 40 15
      vertex 110 33.6838 15
    endloop
  endfacet
  facet normal 1 0 0
    outer loop
      vertex 110 40 15
      vertex 110 33.2919 11.2277
      vertex 110 40 5
    endloop
  endfacet
  facet normal 1 -0 0
    outer loop
      vertex 110 31.8589 9.95818
      vertex 110 40 5
      vertex 110 33.2919 11.2277
    endloop
  endfacet
  facet normal 1 -0 0
    outer loop
      vertex 110 30 9.5
      vertex 110 40 5
      vertex 110 31.8589 9.95818
    endloop
  endfacet
  facet normal 1 0 0
    outer loop
      vertex 110 28.1411 9.95818
      vertex 110 40 5
      vertex 110 30 9.5
    endloop
  endfacet
  facet normal 1 0 0
    outer loop
      vertex 110 15 15
      vertex 110 26.7081 11.2277
      vertex 110 26.0292 13.0179
    endloop
  endfacet
  facet normal 1 0 0
    outer loop
      vertex 110 15 15
      vertex 110 28.1411 9.95818
      vertex 110 26.7081 11.2277
    endloop
  endfacet
  facet normal 1 0 0
    outer loop
      vertex 110 -28.1411 9.95818
      vertex 110 28.1411 9.95818
      vertex 110 15 15
    endloop
  endfacet
  facet normal 1 0 0
    outer loop
      vertex 110 -15 15
      vertex 110 15 15
      vertex 110 -15 16
    endloop
  endfacet
  facet normal 1 0 0
    outer loop
      vertex 110 -28.1411 9.95818
      vertex 110 15 15
      vertex 110 -15 15
    endloop
  endfacet
  facet normal 1 0 0
    outer loop
      vertex 110 -26.7081 11.2277
      vertex 110 -15 15
      vertex 110 -26.0292 13.0179
    endloop
  endfacet
  facet normal 1 0 0
    outer loop
      vertex 110 -28.1411 9.95818
      vertex 110 -15 15
      vertex 110 -26.7081 11.2277
    endloop
  endfacet
  facet normal 1 0 0
    outer loop
      vertex 110 28.1411 9.95818
      vertex 110 -28.1411 9.95818
      vertex 110 40 5
    endloop
  endfacet
  facet normal 1 0 0
    outer loop
      vertex 110 -40 5
      vertex 110 -28.1411 9.95818
      vertex 110 -30 9.5
    endloop
  endfacet
  facet normal 1 0 0
    outer loop
      vertex 110 -40 15
      vertex 110 -33.2919 11.2277
      vertex 110 -33.9708 13.0179
    endloop
  endfacet
  facet normal 1 0 0
    outer loop
      vertex 110 -40 5
      vertex 110 -33.2919 11.2277
      vertex 110 -40 15
    endloop
  endfacet
  facet normal 1 0 0
    outer loop
      vertex 110 -28.1411 9.95818
      vertex 110 -40 5
      vertex 110 40 5
    endloop
  endfacet
  facet normal 1 0 0
    outer loop
      vertex 110 -31.8589 9.95818
      vertex 110 -40 5
      vertex 110 -30 9.5
    endloop
  endfacet
  facet normal 1 0 0
    outer loop
      vertex 110 -33.2919 11.2277
      vertex 110 -40 5
      vertex 110 -31.8589 9.95818
    endloop
  endfacet
  facet normal 1 0 0
    outer loop
      vertex 110 -15 15
      vertex 110 -26.2599 14.9184
      vertex 110 -26.0292 13.0179
    endloop
  endfacet
  facet normal 1 0 -0
    outer loop
      vertex 110 -26.2599 14.9184
      vertex 110 -15 15
      vertex 110 -26.3162 15
    endloop
  endfacet
  facet normal -0 0 1
    outer loop
      vertex 109.268 -16.7678 15
      vertex 110 -26.3162 15
      vertex 110 -15 15
    endloop
  endfacet
  facet normal -0 0 1
    outer loop
      vertex 107.5 -17.5 15
      vertex 110 -26.3162 15
      vertex 109.268 -16.7678 15
    endloop
  endfacet
  facet normal -0 0 1
    outer loop
      vertex 72.5 -17.5 15
      vertex 110 -26.3162 15
      vertex 107.5 -17.5 15
    endloop
  endfacet
  facet normal 0 0 1
    outer loop
      vertex 72.5 -17.5 15
      vertex 70 -26.3162 15
      vertex 110 -26.3162 15
    endloop
  endfacet
  facet normal 0 0 1
    outer loop
      vertex 70.7322 -16.7678 15
      vertex 70 -26.3162 15
      vertex 72.5 -17.5 15
    endloop
  endfacet
  facet normal 0 0 1
    outer loop
      vertex 70 -26.3162 15
      vertex 70.7322 -16.7678 15
      vertex 70 -15 15
    endloop
  endfacet
  facet normal 0 0 1
    outer loop
      vertex 110 26.3162 15
      vertex 109.268 16.7678 15
      vertex 110 15 15
    endloop
  endfacet
  facet normal 0 0 1
    outer loop
      vertex 110 26.3162 15
      vertex 107.5 17.5 15
      vertex 109.268 16.7678 15
    endloop
  endfacet
  facet normal 0 0 1
    outer loop
      vertex 110 26.3162 15
      vertex 72.5 17.5 15
      vertex 107.5 17.5 15
    endloop
  endfacet
  facet normal -0 0 1
    outer loop
      vertex 70 26.3162 15
      vertex 72.5 17.5 15
      vertex 110 26.3162 15
    endloop
  endfacet
  facet normal 0 0 1
    outer loop
      vertex 70 26.3162 15
      vertex 70.7322 16.7678 15
      vertex 72.5 17.5 15
    endloop
  endfacet
  facet normal 0 0 1
    outer loop
      vertex 70.7322 16.7678 15
      vertex 70 26.3162 15
      vertex 70 15 15
    endloop
  endfacet
  facet normal -0 0 1
    outer loop
      vertex 70 40 15
      vertex 110 33.6838 15
      vertex 110 40 15
    endloop
  endfacet
  facet normal 0 0 1
    outer loop
      vertex 110 33.6838 15
      vertex 70 40 15
      vertex 70 33.6838 15
    endloop
  endfacet
  facet normal -0 0 1
    outer loop
      vertex 70 -33.6838 15
      vertex 110 -40 15
      vertex 110 -33.6838 15
    endloop
  endfacet
  facet normal 0 0 1
    outer loop
      vertex 110 -40 15
      vertex 70 -33.6838 15
      vertex 70 -40 15
    endloop
  endfacet
  facet normal -1 0 0
    outer loop
      vertex 70 33.2919 11.2277
      vertex 70 40 15
      vertex 70 40 5
    endloop
  endfacet
  facet normal -1 0 0
    outer loop
      vertex 70 40 15
      vertex 70 33.2919 11.2277
      vertex 70 33.9708 13.0179
    endloop
  endfacet
  facet normal -1 0 0
    outer loop
      vertex 70 40 5
      vertex 70 31.8589 9.95818
      vertex 70 33.2919 11.2277
    endloop
  endfacet
  facet normal -1 0 0
    outer loop
      vertex 70 40 5
      vertex 70 30 9.5
      vertex 70 31.8589 9.95818
    endloop
  endfacet
  facet normal -1 0 0
    outer loop
      vertex 70 40 5
      vertex 70 28.1411 9.95818
      vertex 70 30 9.5
    endloop
  endfacet
  facet normal -1 0 0
    outer loop
      vertex 70 26.7081 11.2277
      vertex 70 15 15
      vertex 70 26.0292 13.0179
    endloop
  endfacet
  facet normal -1 0 0
    outer loop
      vertex 70 28.1411 9.95818
      vertex 70 15 15
      vertex 70 26.7081 11.2277
    endloop
  endfacet
  facet normal -1 0 0
    outer loop
      vertex 70 -28.1411 9.95818
      vertex 70 28.1411 9.95818
      vertex 70 40 5
    endloop
  endfacet
  facet normal -1 0 0
    outer loop
      vertex 70 28.1411 9.95818
      vertex 70 -28.1411 9.95818
      vertex 70 15 15
    endloop
  endfacet
  facet normal -1 -0 0
    outer loop
      vertex 70 15 15
      vertex 70 -28.1411 9.95818
      vertex 70 -15 15
    endloop
  endfacet
  facet normal -1 0 0
    outer loop
      vertex 70 -15 15
      vertex 70 -26.7081 11.2277
      vertex 70 -26.0292 13.0179
    endloop
  endfacet
  facet normal -1 0 0
    outer loop
      vertex 70 -15 15
      vertex 70 -28.1411 9.95818
      vertex 70 -26.7081 11.2277
    endloop
  endfacet
  facet normal -1 0 0
    outer loop
      vertex 70 -40 5
      vertex 70 -28.1411 9.95818
      vertex 70 40 5
    endloop
  endfacet
  facet normal -1 0 0
    outer loop
      vertex 70 -40 15
      vertex 70 -33.2919 11.2277
      vertex 70 -40 5
    endloop
  endfacet
  facet normal -1 -0 0
    outer loop
      vertex 70 -31.8589 9.95818
      vertex 70 -40 5
      vertex 70 -33.2919 11.2277
    endloop
  endfacet
  facet normal -1 -0 0
    outer loop
      vertex 70 -30 9.5
      vertex 70 -40 5
      vertex 70 -31.8589 9.95818
    endloop
  endfacet
  facet normal -1 0 0
    outer loop
      vertex 70 -28.1411 9.95818
      vertex 70 -40 5
      vertex 70 -30 9.5
    endloop
  endfacet
  facet normal -1 0 0
    outer loop
      vertex 70 33.7401 14.9184
      vertex 70 40 15
      vertex 70 33.9708 13.0179
    endloop
  endfacet
  facet normal -1 -0 0
    outer loop
      vertex 70 40 15
      vertex 70 33.7401 14.9184
      vertex 70 33.6838 15
    endloop
  endfacet
  facet normal -1 0 0
    outer loop
      vertex 70 26.2599 14.9184
      vertex 70 15 15
      vertex 70 26.3162 15
    endloop
  endfacet
  facet normal -1 0 0
    outer loop
      vertex 70 15 15
      vertex 70 26.2599 14.9184
      vertex 70 26.0292 13.0179
    endloop
  endfacet
  facet normal -1 0 0
    outer loop
      vertex 70 -26.2599 14.9184
      vertex 70 -15 15
      vertex 70 -26.0292 13.0179
    endloop
  endfacet
  facet normal -1 -0 0
    outer loop
      vertex 70 -15 15
      vertex 70 -26.2599 14.9184
      vertex 70 -26.3162 15
    endloop
  endfacet
  facet normal -1 0 0
    outer loop
      vertex 70 -33.2919 11.2277
      vertex 70 -40 15
      vertex 70 -33.9708 13.0179
    endloop
  endfacet
  facet normal -1 0 0
    outer loop
      vertex 70 -33.7401 14.9184
      vertex 70 -40 15
      vertex 70 -33.6838 15
    endloop
  endfacet
  facet normal -1 0 0
    outer loop
      vertex 70 -33.9708 13.0179
      vertex 70 -40 15
      vertex 70 -33.7401 14.9184
    endloop
  endfacet
  facet normal 0 0 -1
    outer loop
      vertex 70 -40 5
      vertex 110 40 5
      vertex 110 -40 5
    endloop
  endfacet
  facet normal -0 0 -1
    outer loop
      vertex 110 40 5
      vertex 70 -40 5
      vertex 70 40 5
    endloop
  endfacet
  facet normal 0 1 -0
    outer loop
      vertex 110 40 5
      vertex 70 40 15
      vertex 110 40 15
    endloop
  endfacet
  facet normal 0 1 0
    outer loop
      vertex 70 40 15
      vertex 110 40 5
      vertex 70 40 5
    endloop
  endfacet
  facet normal 0 -1 0
    outer loop
      vertex 70 -40 5
      vertex 110 -40 15
      vertex 70 -40 15
    endloop
  endfacet
  facet normal 0 -1 -0
    outer loop
      vertex 110 -40 15
      vertex 70 -40 5
      vertex 110 -40 5
    endloop
  endfacet
  facet normal -0.502702 -0.86446 0
    outer loop
      vertex 59 -9.94522 33.9547
      vertex 70.7322 -16.7678 16
      vertex 59 -9.94522 36.0453
    endloop
  endfacet
  facet normal -0.502702 -0.86446 -0
    outer loop
      vertex 70.7322 -16.7678 16
      vertex 59 -9.94522 33.9547
      vertex 70.7322 -16.7678 15
    endloop
  endfacet
  facet normal -0 0.499998 0.866026
    outer loop
      vertex 59 5.87785 43.0902
      vertex 60 4.06737 44.1355
      vertex 60 5.87785 43.0902
    endloop
  endfacet
  facet normal 0 0.499998 0.866026
    outer loop
      vertex 60 4.06737 44.1355
      vertex 59 5.87785 43.0902
      vertex 59 4.06737 44.1355
    endloop
  endfacet
  facet normal -0.808835 -0.393473 -0.436996
    outer loop
      vertex 59 -5.87785 26.9098
      vertex 70.7322 -16.7678 15
      vertex 59 -7.43145 28.3087
    endloop
  endfacet
  facet normal 0 -1 0
    outer loop
      vertex 72.5 -17.5 15
      vertex 107.5 -17.5 16
      vertex 72.5 -17.5 16
    endloop
  endfacet
  facet normal 0 -1 -0
    outer loop
      vertex 107.5 -17.5 16
      vertex 72.5 -17.5 15
      vertex 107.5 -17.5 15
    endloop
  endfacet
  facet normal 0.343431 -0.469587 0.813353
    outer loop
      vertex 60 -4.06737 44.1355
      vertex 60 -5.87785 43.0902
      vertex 109.268 -16.7678 16
    endloop
  endfacet
  facet normal 0.261642 -0.631661 0.729758
    outer loop
      vertex 109.268 -16.7678 16
      vertex 60 -5.87785 43.0902
      vertex 107.5 -17.5 16
    endloop
  endfacet
  facet normal 0.251733 0.647583 0.719213
    outer loop
      vertex 107.5 17.5 16
      vertex 60 7.43145 41.6913
      vertex 60 5.87785 43.0902
    endloop
  endfacet
  facet normal 0.382683 0.92388 -0
    outer loop
      vertex 109.268 16.7678 15
      vertex 107.5 17.5 16
      vertex 109.268 16.7678 16
    endloop
  endfacet
  facet normal 0.382683 0.92388 0
    outer loop
      vertex 107.5 17.5 16
      vertex 109.268 16.7678 15
      vertex 107.5 17.5 15
    endloop
  endfacet
  facet normal 0.144884 -0.80048 0.581584
    outer loop
      vertex 60 -7.43145 41.6913
      vertex 60 -8.66025 40
      vertex 107.5 -17.5 16
    endloop
  endfacet
  facet normal 0.501718 0 0.865031
    outer loop
      vertex 110 15 16
      vertex 60 3.67382e-015 45
      vertex 110 -15 16
    endloop
  endfacet
  facet normal -0.795001 0.490756 -0.356555
    outer loop
      vertex 70.7322 16.7678 15
      vertex 59 7.43145 28.3087
      vertex 59 8.66025 30
    endloop
  endfacet
  facet normal 0 -0.940385 0.340113
    outer loop
      vertex 72.5 -17.5 16
      vertex 60 -9.51056 38.0902
      vertex 59 -9.51056 38.0902
    endloop
  endfacet
  facet normal 0 -0.940385 0.340113
    outer loop
      vertex 60 -9.51056 38.0902
      vertex 72.5 -17.5 16
      vertex 107.5 -17.5 16
    endloop
  endfacet
  facet normal -0.382683 -0.92388 0
    outer loop
      vertex 70.7322 -16.7678 15
      vertex 72.5 -17.5 16
      vertex 70.7322 -16.7678 16
    endloop
  endfacet
  facet normal -0.382683 -0.92388 -0
    outer loop
      vertex 72.5 -17.5 16
      vertex 70.7322 -16.7678 15
      vertex 72.5 -17.5 15
    endloop
  endfacet
  facet normal -0.672673 0 -0.73994
    outer loop
      vertex 70 -15 15
      vertex 59 3.79628e-015 25
      vertex 70 15 15
    endloop
  endfacet
  facet normal -0.806025 -0.333866 -0.488731
    outer loop
      vertex 59 -5.87785 26.9098
      vertex 70 -15 15
      vertex 70.7322 -16.7678 15
    endloop
  endfacet
  facet normal 0.478859 -0.0917651 0.873083
    outer loop
      vertex 60 3.67382e-015 45
      vertex 60 -2.07912 44.7815
      vertex 110 -15 16
    endloop
  endfacet
  facet normal 0.92388 0.382683 0
    outer loop
      vertex 110 15 16
      vertex 109.268 16.7678 15
      vertex 109.268 16.7678 16
    endloop
  endfacet
  facet normal 0.92388 0.382683 0
    outer loop
      vertex 109.268 16.7678 15
      vertex 110 15 16
      vertex 110 15 15
    endloop
  endfacet
  facet normal 0.453134 0.187694 0.871459
    outer loop
      vertex 109.268 16.7678 16
      vertex 60 2.07912 44.7815
      vertex 110 15 16
    endloop
  endfacet
  facet normal 0.343431 0.469587 0.813353
    outer loop
      vertex 60 5.87785 43.0902
      vertex 60 4.06737 44.1355
      vertex 109.268 16.7678 16
    endloop
  endfacet
  facet normal -0.75498 -0.599055 -0.266717
    outer loop
      vertex 59 -8.66025 30
      vertex 70.7322 -16.7678 15
      vertex 59 -9.51056 31.9098
    endloop
  endfacet
  facet normal -0.780006 -0.193374 -0.595145
    outer loop
      vertex 59 -4.06737 25.8645
      vertex 59 -2.07912 25.2185
      vertex 70 -15 15
    endloop
  endfacet
  facet normal -0.804041 -0.297287 -0.514916
    outer loop
      vertex 59 -4.06737 25.8645
      vertex 70 -15 15
      vertex 59 -5.87785 26.9098
    endloop
  endfacet
  facet normal -0.806025 0.333866 -0.488731
    outer loop
      vertex 70 15 15
      vertex 59 5.87785 26.9098
      vertex 70.7322 16.7678 15
    endloop
  endfacet
  facet normal -0.502702 0.86446 0
    outer loop
      vertex 70.7322 16.7678 16
      vertex 59 9.94522 33.9547
      vertex 59 9.94522 36.0453
    endloop
  endfacet
  facet normal -0.502702 0.86446 0
    outer loop
      vertex 59 9.94522 33.9547
      vertex 70.7322 16.7678 16
      vertex 70.7322 16.7678 15
    endloop
  endfacet
  facet normal 0 1 -0
    outer loop
      vertex 107.5 17.5 15
      vertex 72.5 17.5 16
      vertex 107.5 17.5 16
    endloop
  endfacet
  facet normal 0 1 0
    outer loop
      vertex 72.5 17.5 16
      vertex 107.5 17.5 15
      vertex 72.5 17.5 15
    endloop
  endfacet
  facet normal -0.381127 -0.920122 0.0901016
    outer loop
      vertex 59 -9.94522 36.0453
      vertex 70.7322 -16.7678 16
      vertex 72.5 -17.5 16
    endloop
  endfacet
  facet normal -0.23215 -0.951425 0.202231
    outer loop
      vertex 59 -9.94522 36.0453
      vertex 72.5 -17.5 16
      vertex 59 -9.51056 38.0902
    endloop
  endfacet
  facet normal 0.144883 0.800481 0.581583
    outer loop
      vertex 60 8.66025 40
      vertex 60 7.43145 41.6913
      vertex 107.5 17.5 16
    endloop
  endfacet
  facet normal 0 0 1
    outer loop
      vertex 59 3.79628e-015 45
      vertex 60 1.83691e-015 45
      vertex 60 3.67382e-015 45
    endloop
  endfacet
  facet normal 0 0 1
    outer loop
      vertex 60 1.83691e-015 45
      vertex 59 3.79628e-015 45
      vertex 59 1.89814e-015 45
    endloop
  endfacet
  facet normal 1 0 0
    outer loop
      vertex 60 3.67382e-015 45
      vertex 60 1.83691e-015 45
      vertex 60 -2.07912 44.7815
    endloop
  endfacet
  facet normal 1 0 0
    outer loop
      vertex 59 2.07912 44.7815
      vertex 59 5.61147e-015 45
      vertex 59 3.79628e-015 45
    endloop
  endfacet
  facet normal 0.92388 -0.382683 0
    outer loop
      vertex 109.268 -16.7678 16
      vertex 110 -15 15
      vertex 110 -15 16
    endloop
  endfacet
  facet normal 0.92388 -0.382683 0
    outer loop
      vertex 110 -15 15
      vertex 109.268 -16.7678 16
      vertex 109.268 -16.7678 15
    endloop
  endfacet
  facet normal -0 0.669131 0.743145
    outer loop
      vertex 59 7.43145 41.6913
      vertex 60 5.87785 43.0902
      vertex 60 7.43145 41.6913
    endloop
  endfacet
  facet normal 0 0.669131 0.743145
    outer loop
      vertex 60 5.87785 43.0902
      vertex 59 7.43145 41.6913
      vertex 59 5.87785 43.0902
    endloop
  endfacet
  facet normal -0.795001 -0.490756 -0.356555
    outer loop
      vertex 59 -7.43145 28.3087
      vertex 70.7322 -16.7678 15
      vertex 59 -8.66025 30
    endloop
  endfacet
  facet normal -0.670895 -0.725347 -0.154177
    outer loop
      vertex 59 -9.51056 31.9098
      vertex 70.7322 -16.7678 15
      vertex 59 -9.94522 33.9547
    endloop
  endfacet
  facet normal 0 0 0
    outer loop
      vertex 59 3.79628e-015 25
      vertex 59 0 25
      vertex 59 1.89814e-015 25
    endloop
  endfacet
  facet normal -0.723036 -0.072209 -0.687026
    outer loop
      vertex 59 0 25
      vertex 70 -15 15
      vertex 59 -2.07912 25.2185
    endloop
  endfacet
  facet normal -0.707107 0 -0.707107
    outer loop
      vertex 70 -15 15
      vertex 59 0 25
      vertex 59 3.79628e-015 25
    endloop
  endfacet
  facet normal -0.723036 0.0722096 -0.687026
    outer loop
      vertex 70 15 15
      vertex 59 3.79628e-015 25
      vertex 59 2.07912 25.2185
    endloop
  endfacet
  facet normal -0.382683 0.92388 0
    outer loop
      vertex 72.5 17.5 15
      vertex 70.7322 16.7678 16
      vertex 72.5 17.5 16
    endloop
  endfacet
  facet normal -0.382683 0.92388 0
    outer loop
      vertex 70.7322 16.7678 16
      vertex 72.5 17.5 15
      vertex 70.7322 16.7678 15
    endloop
  endfacet
  facet normal 0.261642 0.631661 0.729758
    outer loop
      vertex 107.5 17.5 16
      vertex 60 5.87785 43.0902
      vertex 109.268 16.7678 16
    endloop
  endfacet
  facet normal 0.420497 0.28037 0.862888
    outer loop
      vertex 60 4.06737 44.1355
      vertex 60 2.07912 44.7815
      vertex 109.268 16.7678 16
    endloop
  endfacet
  facet normal 0.251732 -0.647584 0.719212
    outer loop
      vertex 107.5 -17.5 16
      vertex 60 -5.87785 43.0902
      vertex 60 -7.43145 41.6913
    endloop
  endfacet
  facet normal 0.382683 -0.92388 0
    outer loop
      vertex 107.5 -17.5 15
      vertex 109.268 -16.7678 16
      vertex 107.5 -17.5 16
    endloop
  endfacet
  facet normal 0.382683 -0.92388 0
    outer loop
      vertex 109.268 -16.7678 16
      vertex 107.5 -17.5 15
      vertex 109.268 -16.7678 15
    endloop
  endfacet
  facet normal -0 0.309018 0.951056
    outer loop
      vertex 59 4.06737 44.1355
      vertex 60 2.07912 44.7815
      vertex 60 4.06737 44.1355
    endloop
  endfacet
  facet normal 0 0.309018 0.951056
    outer loop
      vertex 60 2.07912 44.7815
      vertex 59 4.06737 44.1355
      vertex 59 2.07912 44.7815
    endloop
  endfacet
  facet normal -0 0.940385 0.340112
    outer loop
      vertex 72.5 17.5 16
      vertex 60 9.51056 38.0902
      vertex 107.5 17.5 16
    endloop
  endfacet
  facet normal 0 0.940385 0.340112
    outer loop
      vertex 60 9.51056 38.0902
      vertex 72.5 17.5 16
      vertex 59 9.51056 38.0902
    endloop
  endfacet
  facet normal -0.381127 0.920122 0.0901016
    outer loop
      vertex 70.7322 16.7678 16
      vertex 59 9.94522 36.0453
      vertex 72.5 17.5 16
    endloop
  endfacet
  facet normal -0.670895 0.725347 -0.154177
    outer loop
      vertex 70.7322 16.7678 15
      vertex 59 9.51056 31.9098
      vertex 59 9.94522 33.9547
    endloop
  endfacet
  facet normal -0.75498 0.599055 -0.266717
    outer loop
      vertex 70.7322 16.7678 15
      vertex 59 8.66025 30
      vertex 59 9.51056 31.9098
    endloop
  endfacet
  facet normal 0.453134 -0.187694 0.871459
    outer loop
      vertex 110 -15 16
      vertex 60 -2.07912 44.7815
      vertex 109.268 -16.7678 16
    endloop
  endfacet
  facet normal 0.420497 -0.28037 0.862888
    outer loop
      vertex 60 -2.07912 44.7815
      vertex 60 -4.06737 44.1355
      vertex 109.268 -16.7678 16
    endloop
  endfacet
  facet normal -0.808835 0.393473 -0.436996
    outer loop
      vertex 70.7322 16.7678 15
      vertex 59 5.87785 26.9098
      vertex 59 7.43145 28.3087
    endloop
  endfacet
  facet normal -0.804041 0.297287 -0.514916
    outer loop
      vertex 70 15 15
      vertex 59 4.06737 25.8645
      vertex 59 5.87785 26.9098
    endloop
  endfacet
  facet normal 0 0.809017 0.587785
    outer loop
      vertex 60 8.66025 40
      vertex 59 7.43145 41.6913
      vertex 60 7.43145 41.6913
    endloop
  endfacet
  facet normal 0 0.809017 0.587785
    outer loop
      vertex 59 7.43145 41.6913
      vertex 60 8.66025 40
      vertex 59 8.66025 40
    endloop
  endfacet
  facet normal -0 0.104529 0.994522
    outer loop
      vertex 59 2.07912 44.7815
      vertex 60 3.67382e-015 45
      vertex 60 2.07912 44.7815
    endloop
  endfacet
  facet normal 1.28007e-017 0.104529 0.994522
    outer loop
      vertex 60 3.67382e-015 45
      vertex 59 2.07912 44.7815
      vertex 59 3.79628e-015 45
    endloop
  endfacet
  facet normal 0.478859 0.0917651 0.873083
    outer loop
      vertex 60 2.07912 44.7815
      vertex 60 3.67382e-015 45
      vertex 110 15 16
    endloop
  endfacet
  facet normal 0 0 0
    outer loop
      vertex 59 3.79628e-015 45
      vertex 59 5.61147e-015 45
      vertex 59 2.86841e-015 45
    endloop
  endfacet
  facet normal -1 0 0
    outer loop
      vertex 59 3.79628e-015 25
      vertex 59 1.89814e-015 25
      vertex 59 2.07912 25.2185
    endloop
  endfacet
  facet normal -0.23215 0.951425 0.202231
    outer loop
      vertex 59 9.94522 36.0453
      vertex 59 9.51056 38.0902
      vertex 72.5 17.5 16
    endloop
  endfacet
  facet normal 0.0354758 -0.912971 0.40648
    outer loop
      vertex 60 -8.66025 40
      vertex 60 -9.51056 38.0902
      vertex 107.5 -17.5 16
    endloop
  endfacet
  facet normal -0.780006 0.193374 -0.595145
    outer loop
      vertex 70 15 15
      vertex 59 2.07912 25.2185
      vertex 59 4.06737 25.8645
    endloop
  endfacet
  facet normal 0 0.913545 0.406737
    outer loop
      vertex 60 9.51056 38.0902
      vertex 59 8.66025 40
      vertex 60 8.66025 40
    endloop
  endfacet
  facet normal 0 0.913545 0.406737
    outer loop
      vertex 59 8.66025 40
      vertex 60 9.51056 38.0902
      vertex 59 9.51056 38.0902
    endloop
  endfacet
  facet normal 0.0354762 0.91297 0.406481
    outer loop
      vertex 60 9.51056 38.0902
      vertex 60 8.66025 40
      vertex 107.5 17.5 16
    endloop
  endfacet
  facet normal 0 0 0
    outer loop
      vertex 59 3.79628e-015 45
      vertex 59 2.86841e-015 45
      vertex 59 1.89814e-015 45
    endloop
  endfacet
  facet normal 0 0 -1
    outer loop
      vertex -59 0 25
      vertex 59 1.89814e-015 25
      vertex 59 0 25
    endloop
  endfacet
  facet normal -1.68144e-018 0.104529 -0.994522
    outer loop
      vertex 59 1.89814e-015 25
      vertex -59 0 25
      vertex 59 2.07912 25.2185
    endloop
  endfacet
  facet normal 0 0.104529 -0.994522
    outer loop
      vertex 59 2.07912 25.2185
      vertex -59 0 25
      vertex -59 2.07912 25.2185
    endloop
  endfacet
  facet normal 0 -1 0
    outer loop
      vertex -59 -9.94522 33.9547
      vertex 59 -9.94522 36.0453
      vertex -59 -9.94522 36.0453
    endloop
  endfacet
  facet normal 0 -1 -0
    outer loop
      vertex 59 -9.94522 36.0453
      vertex -59 -9.94522 33.9547
      vertex 59 -9.94522 33.9547
    endloop
  endfacet
  facet normal 0 -0.309016 -0.951057
    outer loop
      vertex -59 -4.06737 25.8645
      vertex 59 -2.07912 25.2185
      vertex 59 -4.06737 25.8645
    endloop
  endfacet
  facet normal -0 -0.309016 -0.951057
    outer loop
      vertex 59 -2.07912 25.2185
      vertex -59 -4.06737 25.8645
      vertex -59 -2.07912 25.2185
    endloop
  endfacet
  facet normal 0 0.309016 -0.951057
    outer loop
      vertex -59 2.07912 25.2185
      vertex 59 4.06737 25.8645
      vertex 59 2.07912 25.2185
    endloop
  endfacet
  facet normal 0 0.309016 -0.951057
    outer loop
      vertex 59 4.06737 25.8645
      vertex -59 2.07912 25.2185
      vertex -59 4.06737 25.8645
    endloop
  endfacet
  facet normal 0 0.669131 -0.743145
    outer loop
      vertex -59 5.87785 26.9098
      vertex 59 7.43145 28.3087
      vertex 59 5.87785 26.9098
    endloop
  endfacet
  facet normal 0 0.669131 -0.743145
    outer loop
      vertex 59 7.43145 28.3087
      vertex -59 5.87785 26.9098
      vertex -59 7.43145 28.3087
    endloop
  endfacet
  facet normal 0 0.978148 -0.207911
    outer loop
      vertex 59 9.51056 31.9098
      vertex -59 9.94522 33.9547
      vertex 59 9.94522 33.9547
    endloop
  endfacet
  facet normal 0 0.978148 -0.207911
    outer loop
      vertex -59 9.94522 33.9547
      vertex 59 9.51056 31.9098
      vertex -59 9.51056 31.9098
    endloop
  endfacet
  facet normal 0 0.809017 -0.587785
    outer loop
      vertex 59 7.43145 28.3087
      vertex -59 8.66025 30
      vertex 59 8.66025 30
    endloop
  endfacet
  facet normal 0 0.809017 -0.587785
    outer loop
      vertex -59 8.66025 30
      vertex 59 7.43145 28.3087
      vertex -59 7.43145 28.3087
    endloop
  endfacet
  facet normal 0 0.978148 0.207911
    outer loop
      vertex 59 9.94522 36.0453
      vertex -59 9.51056 38.0902
      vertex 59 9.51056 38.0902
    endloop
  endfacet
  facet normal 0 0.978148 0.207911
    outer loop
      vertex -59 9.51056 38.0902
      vertex 59 9.94522 36.0453
      vertex -59 9.94522 36.0453
    endloop
  endfacet
  facet normal -1.60754e-008 -0.104528 -0.994522
    outer loop
      vertex -59 -2.07912 25.2185
      vertex 59 0 25
      vertex 59 -2.07912 25.2185
    endloop
  endfacet
  facet normal -0 -0.104529 -0.994522
    outer loop
      vertex 59 0 25
      vertex -59 -2.07912 25.2185
      vertex -59 0 25
    endloop
  endfacet
  facet normal 0 -0.978148 -0.207911
    outer loop
      vertex -59 -9.51056 31.9098
      vertex 59 -9.94522 33.9547
      vertex -59 -9.94522 33.9547
    endloop
  endfacet
  facet normal 0 -0.978148 -0.207911
    outer loop
      vertex 59 -9.94522 33.9547
      vertex -59 -9.51056 31.9098
      vertex 59 -9.51056 31.9098
    endloop
  endfacet
  facet normal 0 0.5 -0.866026
    outer loop
      vertex -59 4.06737 25.8645
      vertex 59 5.87785 26.9098
      vertex 59 4.06737 25.8645
    endloop
  endfacet
  facet normal 0 0.5 -0.866026
    outer loop
      vertex 59 5.87785 26.9098
      vertex -59 4.06737 25.8645
      vertex -59 5.87785 26.9098
    endloop
  endfacet
  facet normal 0 1 -0
    outer loop
      vertex 59 9.94522 33.9547
      vertex -59 9.94522 36.0453
      vertex 59 9.94522 36.0453
    endloop
  endfacet
  facet normal 0 1 0
    outer loop
      vertex -59 9.94522 36.0453
      vertex 59 9.94522 33.9547
      vertex -59 9.94522 33.9547
    endloop
  endfacet
  facet normal 0 0.913545 -0.406737
    outer loop
      vertex 59 8.66025 30
      vertex -59 9.51056 31.9098
      vertex 59 9.51056 31.9098
    endloop
  endfacet
  facet normal 0 0.913545 -0.406737
    outer loop
      vertex -59 9.51056 31.9098
      vertex 59 8.66025 30
      vertex -59 8.66025 30
    endloop
  endfacet
  facet normal 0 -0.5 -0.866026
    outer loop
      vertex -59 -5.87785 26.9098
      vertex 59 -4.06737 25.8645
      vertex 59 -5.87785 26.9098
    endloop
  endfacet
  facet normal -0 -0.5 -0.866026
    outer loop
      vertex 59 -4.06737 25.8645
      vertex -59 -5.87785 26.9098
      vertex -59 -4.06737 25.8645
    endloop
  endfacet
  facet normal 1 0 0
    outer loop
      vertex 60 1.83691e-015 45
      vertex 60 0 45
      vertex 60 -2.07912 44.7815
    endloop
  endfacet
  facet normal 0 -0.809017 -0.587785
    outer loop
      vertex -59 -7.43145 28.3087
      vertex 59 -8.66025 30
      vertex -59 -8.66025 30
    endloop
  endfacet
  facet normal 0 -0.809017 -0.587785
    outer loop
      vertex 59 -8.66025 30
      vertex -59 -7.43145 28.3087
      vertex 59 -7.43145 28.3087
    endloop
  endfacet
  facet normal 0 -0.913545 -0.406737
    outer loop
      vertex -59 -8.66025 30
      vertex 59 -9.51056 31.9098
      vertex -59 -9.51056 31.9098
    endloop
  endfacet
  facet normal 0 -0.913545 -0.406737
    outer loop
      vertex 59 -9.51056 31.9098
      vertex -59 -8.66025 30
      vertex 59 -8.66025 30
    endloop
  endfacet
  facet normal 0 -1 0
    outer loop
      vertex -59 -9.51056 38.0902
      vertex 59 -9.51056 38.0902
      vertex 60 -9.51056 38.0902
    endloop
  endfacet
  facet normal 6.72134e-009 -0.978148 0.207911
    outer loop
      vertex -59 -9.94522 36.0453
      vertex 59 -9.51056 38.0902
      vertex -59 -9.51056 38.0902
    endloop
  endfacet
  facet normal 0 -0.978148 0.207912
    outer loop
      vertex 59 -9.51056 38.0902
      vertex -59 -9.94522 36.0453
      vertex 59 -9.94522 36.0453
    endloop
  endfacet
  facet normal 0 -0.669131 -0.743145
    outer loop
      vertex -59 -7.43145 28.3087
      vertex 59 -5.87785 26.9098
      vertex 59 -7.43145 28.3087
    endloop
  endfacet
  facet normal -0 -0.669131 -0.743145
    outer loop
      vertex 59 -5.87785 26.9098
      vertex -59 -7.43145 28.3087
      vertex -59 -5.87785 26.9098
    endloop
  endfacet
endsolid OpenSCAD_Model
